<svg width="347" height="339" viewBox="0 0 347 339" fill="none" xmlns="http://www.w3.org/2000/svg">
<g filter="url(#filter0_d_13_95)">
<path fill-rule="evenodd" clip-rule="evenodd" d="M74.4472 0.305908C34.1304 0.305908 1.4472 32.9892 1.4472 73.306V108.574C5.50712 108.978 9.56676 109.687 13.6257 110.702C26.7998 113.996 39.9666 113.996 53.1407 110.702C66.6332 107.329 80.1332 107.329 93.6257 110.702C106.8 113.996 119.967 113.996 133.141 110.702C146.633 107.329 160.133 107.329 173.626 110.702C186.8 113.996 199.967 113.996 213.141 110.702C226.633 107.329 240.133 107.329 253.626 110.702C266.8 113.996 279.967 113.996 293.141 110.702C306.633 107.329 320.133 107.329 333.626 110.702C337.524 111.677 341.422 112.363 345.319 112.761V81.3142V73.3059C345.319 32.9891 312.636 0.305908 272.319 0.305908H74.4472ZM345.319 81.3142C345.319 102.476 122.653 104.459 11.3205 102.806C92.5344 100.051 248.508 89.0658 248.508 78.4852C248.508 67.9046 92.5344 49.3518 11.3205 39.9835C122.653 44.9432 345.319 60.1529 345.319 81.3142ZM1.4472 128.574V110.584C5.34464 110.982 9.24233 111.668 13.1407 112.642C26.6332 116.016 40.1332 116.016 53.6257 112.642C66.7998 109.349 79.9666 109.349 93.1407 112.642C106.633 116.016 120.133 116.016 133.626 112.642C146.8 109.349 159.967 109.349 173.141 112.642C186.633 116.016 200.133 116.016 213.626 112.642C226.8 109.349 239.967 109.349 253.141 112.642C266.633 116.016 280.133 116.016 293.626 112.642C306.8 109.349 319.967 109.349 333.141 112.642C337.2 113.657 341.259 114.367 345.319 114.771V132.761C341.422 132.363 337.524 131.677 333.626 130.702C320.133 127.329 306.633 127.329 293.141 130.702C279.967 133.996 266.8 133.996 253.626 130.702C240.133 127.329 226.633 127.329 213.141 130.702C199.967 133.996 186.8 133.996 173.626 130.702C160.133 127.329 146.633 127.329 133.141 130.702C119.967 133.996 106.8 133.996 93.6257 130.702C80.1332 127.329 66.6332 127.329 53.1407 130.702C39.9666 133.996 26.7998 133.996 13.6257 130.702C9.56676 129.687 5.50712 128.978 1.4472 128.574ZM345.319 134.771C341.259 134.367 337.2 133.657 333.141 132.642C319.967 129.349 306.8 129.349 293.626 132.642C280.133 136.016 266.633 136.016 253.141 132.642C239.967 129.349 226.8 129.349 213.626 132.642C200.133 136.016 186.633 136.016 173.141 132.642C159.967 129.349 146.8 129.349 133.626 132.642C120.133 136.016 106.633 136.016 93.1407 132.642C79.9666 129.349 66.7998 129.349 53.6257 132.642C40.1332 136.016 26.6332 136.016 13.1407 132.642C9.24233 131.668 5.34464 130.982 1.4472 130.584V148.233C7.15284 148.453 12.8583 149.276 18.5624 150.702C31.7365 153.996 44.9032 153.996 58.0773 150.702C71.5699 147.329 85.0698 147.329 98.5624 150.702C111.736 153.996 124.903 153.996 138.077 150.702C151.57 147.329 165.07 147.329 178.562 150.702C191.736 153.996 204.903 153.996 218.077 150.702C231.57 147.329 245.07 147.329 258.562 150.702C271.736 153.996 284.903 153.996 298.077 150.702C311.57 147.329 325.07 147.329 338.562 150.702C340.815 151.265 343.067 151.732 345.319 152.103V134.771ZM1.4472 208.574V190.938C4.36568 191.345 7.28435 191.913 10.2034 192.642C23.696 196.016 37.1959 196.016 50.6885 192.642C63.8625 189.349 77.0293 189.349 90.2034 192.642C103.696 196.016 117.196 196.016 130.688 192.642C143.863 189.349 157.029 189.349 170.203 192.642C183.696 196.016 197.196 196.016 210.688 192.642C223.863 189.349 237.029 189.349 250.203 192.642C263.696 196.016 277.196 196.016 290.688 192.642C303.863 189.349 317.029 189.349 330.203 192.642C335.241 193.902 340.28 194.691 345.319 195.01V212.761C341.422 212.363 337.524 211.677 333.626 210.702C320.133 207.329 306.633 207.329 293.141 210.702C279.967 213.996 266.8 213.996 253.626 210.702C240.133 207.329 226.633 207.329 213.141 210.702C199.967 213.996 186.8 213.996 173.626 210.702C160.133 207.329 146.633 207.329 133.141 210.702C119.967 213.996 106.8 213.996 93.6257 210.702C80.1332 207.329 66.6332 207.329 53.1407 210.702C39.9666 213.996 26.7998 213.996 13.6257 210.702C9.56676 209.687 5.50712 208.978 1.4472 208.574ZM10.6885 190.702C7.60836 189.932 4.52789 189.338 1.4472 188.919V170.584C5.34464 170.982 9.24233 171.668 13.1407 172.642C26.6332 176.016 40.1332 176.016 53.6257 172.642C66.7998 169.349 79.9666 169.349 93.1407 172.642C106.633 176.016 120.133 176.016 133.626 172.642C146.8 169.349 159.967 169.349 173.141 172.642C186.633 176.016 200.133 176.016 213.626 172.642C226.8 169.349 239.967 169.349 253.141 172.642C266.633 176.016 280.133 176.016 293.626 172.642C306.8 169.349 319.967 169.349 333.141 172.642C337.2 173.657 341.259 174.367 345.319 174.771V193.006C340.443 192.689 335.566 191.922 330.688 190.702C317.196 187.329 303.696 187.329 290.203 190.702C277.029 193.996 263.863 193.996 250.688 190.702C237.196 187.329 223.696 187.329 210.203 190.702C197.029 193.996 183.863 193.996 170.688 190.702C157.196 187.329 143.696 187.329 130.203 190.702C117.029 193.996 103.863 193.996 90.6885 190.702C77.1959 187.329 63.696 187.329 50.2034 190.702C37.0293 193.996 23.8626 193.996 10.6885 190.702ZM345.319 172.761C341.422 172.363 337.524 171.677 333.626 170.702C320.133 167.329 306.633 167.329 293.141 170.702C279.967 173.996 266.8 173.996 253.626 170.702C240.133 167.329 226.633 167.329 213.141 170.702C199.967 173.996 186.8 173.996 173.626 170.702C160.133 167.329 146.633 167.329 133.141 170.702C119.967 173.996 106.8 173.996 93.6257 170.702C80.1332 167.329 66.6332 167.329 53.1407 170.702C39.9666 173.996 26.7998 173.996 13.6257 170.702C9.56676 169.687 5.50712 168.978 1.4472 168.574V150.234C6.99001 150.454 12.533 151.256 18.0773 152.642C31.5699 156.016 45.0698 156.016 58.5624 152.642C71.7365 149.349 84.9032 149.349 98.0773 152.642C111.57 156.016 125.07 156.016 138.562 152.642C151.736 149.349 164.903 149.349 178.077 152.642C191.57 156.016 205.07 156.016 218.562 152.642C231.736 149.349 244.903 149.349 258.077 152.642C271.57 156.016 285.07 156.016 298.562 152.642C311.736 149.349 324.903 149.349 338.077 152.642C340.491 153.246 342.905 153.741 345.319 154.129V172.761ZM1.4472 230.584V260.609C1.4472 300.926 34.1304 333.609 74.4472 333.609H272.319C298.97 333.609 322.284 319.328 335.028 298.001C224.89 299.643 5.44592 297.638 5.44592 276.503C5.44595 255.342 226.37 242.368 335.446 235.172C255.204 244.541 101.098 263.093 101.098 273.674C101.098 284.237 254.687 295.203 335.041 297.981C341.568 287.049 345.319 274.267 345.319 260.609V234.771C341.259 234.367 337.2 233.657 333.141 232.642C319.967 229.349 306.8 229.349 293.626 232.642C280.133 236.016 266.633 236.016 253.141 232.642C239.967 229.349 226.8 229.349 213.626 232.642C200.133 236.016 186.633 236.016 173.141 232.642C159.967 229.349 146.8 229.349 133.626 232.642C120.133 236.016 106.633 236.016 93.1407 232.642C79.9666 229.349 66.7998 229.349 53.6257 232.642C40.1332 236.016 26.6332 236.016 13.1407 232.642C9.24233 231.668 5.34464 230.982 1.4472 230.584ZM1.4472 228.574C5.50712 228.978 9.56676 229.687 13.6257 230.702C26.7998 233.996 39.9666 233.996 53.1407 230.702C66.6332 227.329 80.1332 227.329 93.6257 230.702C106.8 233.996 119.967 233.996 133.141 230.702C146.633 227.329 160.133 227.329 173.626 230.702C186.8 233.996 199.967 233.996 213.141 230.702C226.633 227.329 240.133 227.329 253.626 230.702C266.8 233.996 279.967 233.996 293.141 230.702C306.633 227.329 320.133 227.329 333.626 230.702C337.524 231.677 341.422 232.363 345.319 232.761V214.771C341.259 214.367 337.2 213.657 333.141 212.642C319.967 209.349 306.8 209.349 293.626 212.642C280.133 216.016 266.633 216.016 253.141 212.642C239.967 209.349 226.8 209.349 213.626 212.642C200.133 216.016 186.633 216.016 173.141 212.642C159.967 209.349 146.8 209.349 133.626 212.642C120.133 216.016 106.633 216.016 93.1407 212.642C79.9666 209.349 66.7998 209.349 53.6257 212.642C40.1332 216.016 26.6332 216.016 13.1407 212.642C9.24233 211.668 5.34464 210.982 1.4472 210.584V228.574Z" fill="#627D9A" fill-opacity="0.6" shape-rendering="crispEdges"/>
<path fill-rule="evenodd" clip-rule="evenodd" d="M74.4472 0.305908C34.1304 0.305908 1.4472 32.9892 1.4472 73.306V108.574C5.50712 108.978 9.56676 109.687 13.6257 110.702C26.7998 113.996 39.9666 113.996 53.1407 110.702C66.6332 107.329 80.1332 107.329 93.6257 110.702C106.8 113.996 119.967 113.996 133.141 110.702C146.633 107.329 160.133 107.329 173.626 110.702C186.8 113.996 199.967 113.996 213.141 110.702C226.633 107.329 240.133 107.329 253.626 110.702C266.8 113.996 279.967 113.996 293.141 110.702C306.633 107.329 320.133 107.329 333.626 110.702C337.524 111.677 341.422 112.363 345.319 112.761V81.3142V73.3059C345.319 32.9891 312.636 0.305908 272.319 0.305908H74.4472ZM345.319 81.3142C345.319 102.476 122.653 104.459 11.3205 102.806C92.5344 100.051 248.508 89.0658 248.508 78.4852C248.508 67.9046 92.5344 49.3518 11.3205 39.9835C122.653 44.9432 345.319 60.1529 345.319 81.3142ZM1.4472 128.574V110.584C5.34464 110.982 9.24233 111.668 13.1407 112.642C26.6332 116.016 40.1332 116.016 53.6257 112.642C66.7998 109.349 79.9666 109.349 93.1407 112.642C106.633 116.016 120.133 116.016 133.626 112.642C146.8 109.349 159.967 109.349 173.141 112.642C186.633 116.016 200.133 116.016 213.626 112.642C226.8 109.349 239.967 109.349 253.141 112.642C266.633 116.016 280.133 116.016 293.626 112.642C306.8 109.349 319.967 109.349 333.141 112.642C337.2 113.657 341.259 114.367 345.319 114.771V132.761C341.422 132.363 337.524 131.677 333.626 130.702C320.133 127.329 306.633 127.329 293.141 130.702C279.967 133.996 266.8 133.996 253.626 130.702C240.133 127.329 226.633 127.329 213.141 130.702C199.967 133.996 186.8 133.996 173.626 130.702C160.133 127.329 146.633 127.329 133.141 130.702C119.967 133.996 106.8 133.996 93.6257 130.702C80.1332 127.329 66.6332 127.329 53.1407 130.702C39.9666 133.996 26.7998 133.996 13.6257 130.702C9.56676 129.687 5.50712 128.978 1.4472 128.574ZM345.319 134.771C341.259 134.367 337.2 133.657 333.141 132.642C319.967 129.349 306.8 129.349 293.626 132.642C280.133 136.016 266.633 136.016 253.141 132.642C239.967 129.349 226.8 129.349 213.626 132.642C200.133 136.016 186.633 136.016 173.141 132.642C159.967 129.349 146.8 129.349 133.626 132.642C120.133 136.016 106.633 136.016 93.1407 132.642C79.9666 129.349 66.7998 129.349 53.6257 132.642C40.1332 136.016 26.6332 136.016 13.1407 132.642C9.24233 131.668 5.34464 130.982 1.4472 130.584V148.233C7.15284 148.453 12.8583 149.276 18.5624 150.702C31.7365 153.996 44.9032 153.996 58.0773 150.702C71.5699 147.329 85.0698 147.329 98.5624 150.702C111.736 153.996 124.903 153.996 138.077 150.702C151.57 147.329 165.07 147.329 178.562 150.702C191.736 153.996 204.903 153.996 218.077 150.702C231.57 147.329 245.07 147.329 258.562 150.702C271.736 153.996 284.903 153.996 298.077 150.702C311.57 147.329 325.07 147.329 338.562 150.702C340.815 151.265 343.067 151.732 345.319 152.103V134.771ZM1.4472 208.574V190.938C4.36568 191.345 7.28435 191.913 10.2034 192.642C23.696 196.016 37.1959 196.016 50.6885 192.642C63.8625 189.349 77.0293 189.349 90.2034 192.642C103.696 196.016 117.196 196.016 130.688 192.642C143.863 189.349 157.029 189.349 170.203 192.642C183.696 196.016 197.196 196.016 210.688 192.642C223.863 189.349 237.029 189.349 250.203 192.642C263.696 196.016 277.196 196.016 290.688 192.642C303.863 189.349 317.029 189.349 330.203 192.642C335.241 193.902 340.28 194.691 345.319 195.01V212.761C341.422 212.363 337.524 211.677 333.626 210.702C320.133 207.329 306.633 207.329 293.141 210.702C279.967 213.996 266.8 213.996 253.626 210.702C240.133 207.329 226.633 207.329 213.141 210.702C199.967 213.996 186.8 213.996 173.626 210.702C160.133 207.329 146.633 207.329 133.141 210.702C119.967 213.996 106.8 213.996 93.6257 210.702C80.1332 207.329 66.6332 207.329 53.1407 210.702C39.9666 213.996 26.7998 213.996 13.6257 210.702C9.56676 209.687 5.50712 208.978 1.4472 208.574ZM10.6885 190.702C7.60836 189.932 4.52789 189.338 1.4472 188.919V170.584C5.34464 170.982 9.24233 171.668 13.1407 172.642C26.6332 176.016 40.1332 176.016 53.6257 172.642C66.7998 169.349 79.9666 169.349 93.1407 172.642C106.633 176.016 120.133 176.016 133.626 172.642C146.8 169.349 159.967 169.349 173.141 172.642C186.633 176.016 200.133 176.016 213.626 172.642C226.8 169.349 239.967 169.349 253.141 172.642C266.633 176.016 280.133 176.016 293.626 172.642C306.8 169.349 319.967 169.349 333.141 172.642C337.2 173.657 341.259 174.367 345.319 174.771V193.006C340.443 192.689 335.566 191.922 330.688 190.702C317.196 187.329 303.696 187.329 290.203 190.702C277.029 193.996 263.863 193.996 250.688 190.702C237.196 187.329 223.696 187.329 210.203 190.702C197.029 193.996 183.863 193.996 170.688 190.702C157.196 187.329 143.696 187.329 130.203 190.702C117.029 193.996 103.863 193.996 90.6885 190.702C77.1959 187.329 63.696 187.329 50.2034 190.702C37.0293 193.996 23.8626 193.996 10.6885 190.702ZM345.319 172.761C341.422 172.363 337.524 171.677 333.626 170.702C320.133 167.329 306.633 167.329 293.141 170.702C279.967 173.996 266.8 173.996 253.626 170.702C240.133 167.329 226.633 167.329 213.141 170.702C199.967 173.996 186.8 173.996 173.626 170.702C160.133 167.329 146.633 167.329 133.141 170.702C119.967 173.996 106.8 173.996 93.6257 170.702C80.1332 167.329 66.6332 167.329 53.1407 170.702C39.9666 173.996 26.7998 173.996 13.6257 170.702C9.56676 169.687 5.50712 168.978 1.4472 168.574V150.234C6.99001 150.454 12.533 151.256 18.0773 152.642C31.5699 156.016 45.0698 156.016 58.5624 152.642C71.7365 149.349 84.9032 149.349 98.0773 152.642C111.57 156.016 125.07 156.016 138.562 152.642C151.736 149.349 164.903 149.349 178.077 152.642C191.57 156.016 205.07 156.016 218.562 152.642C231.736 149.349 244.903 149.349 258.077 152.642C271.57 156.016 285.07 156.016 298.562 152.642C311.736 149.349 324.903 149.349 338.077 152.642C340.491 153.246 342.905 153.741 345.319 154.129V172.761ZM1.4472 230.584V260.609C1.4472 300.926 34.1304 333.609 74.4472 333.609H272.319C298.97 333.609 322.284 319.328 335.028 298.001C224.89 299.643 5.44592 297.638 5.44592 276.503C5.44595 255.342 226.37 242.368 335.446 235.172C255.204 244.541 101.098 263.093 101.098 273.674C101.098 284.237 254.687 295.203 335.041 297.981C341.568 287.049 345.319 274.267 345.319 260.609V234.771C341.259 234.367 337.2 233.657 333.141 232.642C319.967 229.349 306.8 229.349 293.626 232.642C280.133 236.016 266.633 236.016 253.141 232.642C239.967 229.349 226.8 229.349 213.626 232.642C200.133 236.016 186.633 236.016 173.141 232.642C159.967 229.349 146.8 229.349 133.626 232.642C120.133 236.016 106.633 236.016 93.1407 232.642C79.9666 229.349 66.7998 229.349 53.6257 232.642C40.1332 236.016 26.6332 236.016 13.1407 232.642C9.24233 231.668 5.34464 230.982 1.4472 230.584ZM1.4472 228.574C5.50712 228.978 9.56676 229.687 13.6257 230.702C26.7998 233.996 39.9666 233.996 53.1407 230.702C66.6332 227.329 80.1332 227.329 93.6257 230.702C106.8 233.996 119.967 233.996 133.141 230.702C146.633 227.329 160.133 227.329 173.626 230.702C186.8 233.996 199.967 233.996 213.141 230.702C226.633 227.329 240.133 227.329 253.626 230.702C266.8 233.996 279.967 233.996 293.141 230.702C306.633 227.329 320.133 227.329 333.626 230.702C337.524 231.677 341.422 232.363 345.319 232.761V214.771C341.259 214.367 337.2 213.657 333.141 212.642C319.967 209.349 306.8 209.349 293.626 212.642C280.133 216.016 266.633 216.016 253.141 212.642C239.967 209.349 226.8 209.349 213.626 212.642C200.133 216.016 186.633 216.016 173.141 212.642C159.967 209.349 146.8 209.349 133.626 212.642C120.133 216.016 106.633 216.016 93.1407 212.642C79.9666 209.349 66.7998 209.349 53.6257 212.642C40.1332 216.016 26.6332 216.016 13.1407 212.642C9.24233 211.668 5.34464 210.982 1.4472 210.584V228.574Z" fill="url(#paint0_linear_13_95)" fill-opacity="0.2" shape-rendering="crispEdges"/>
<path fill-rule="evenodd" clip-rule="evenodd" d="M74.4472 0.305908C34.1304 0.305908 1.4472 32.9892 1.4472 73.306V108.574C5.50712 108.978 9.56676 109.687 13.6257 110.702C26.7998 113.996 39.9666 113.996 53.1407 110.702C66.6332 107.329 80.1332 107.329 93.6257 110.702C106.8 113.996 119.967 113.996 133.141 110.702C146.633 107.329 160.133 107.329 173.626 110.702C186.8 113.996 199.967 113.996 213.141 110.702C226.633 107.329 240.133 107.329 253.626 110.702C266.8 113.996 279.967 113.996 293.141 110.702C306.633 107.329 320.133 107.329 333.626 110.702C337.524 111.677 341.422 112.363 345.319 112.761V81.3142V73.3059C345.319 32.9891 312.636 0.305908 272.319 0.305908H74.4472ZM345.319 81.3142C345.319 102.476 122.653 104.459 11.3205 102.806C92.5344 100.051 248.508 89.0658 248.508 78.4852C248.508 67.9046 92.5344 49.3518 11.3205 39.9835C122.653 44.9432 345.319 60.1529 345.319 81.3142ZM1.4472 128.574V110.584C5.34464 110.982 9.24233 111.668 13.1407 112.642C26.6332 116.016 40.1332 116.016 53.6257 112.642C66.7998 109.349 79.9666 109.349 93.1407 112.642C106.633 116.016 120.133 116.016 133.626 112.642C146.8 109.349 159.967 109.349 173.141 112.642C186.633 116.016 200.133 116.016 213.626 112.642C226.8 109.349 239.967 109.349 253.141 112.642C266.633 116.016 280.133 116.016 293.626 112.642C306.8 109.349 319.967 109.349 333.141 112.642C337.2 113.657 341.259 114.367 345.319 114.771V132.761C341.422 132.363 337.524 131.677 333.626 130.702C320.133 127.329 306.633 127.329 293.141 130.702C279.967 133.996 266.8 133.996 253.626 130.702C240.133 127.329 226.633 127.329 213.141 130.702C199.967 133.996 186.8 133.996 173.626 130.702C160.133 127.329 146.633 127.329 133.141 130.702C119.967 133.996 106.8 133.996 93.6257 130.702C80.1332 127.329 66.6332 127.329 53.1407 130.702C39.9666 133.996 26.7998 133.996 13.6257 130.702C9.56676 129.687 5.50712 128.978 1.4472 128.574ZM345.319 134.771C341.259 134.367 337.2 133.657 333.141 132.642C319.967 129.349 306.8 129.349 293.626 132.642C280.133 136.016 266.633 136.016 253.141 132.642C239.967 129.349 226.8 129.349 213.626 132.642C200.133 136.016 186.633 136.016 173.141 132.642C159.967 129.349 146.8 129.349 133.626 132.642C120.133 136.016 106.633 136.016 93.1407 132.642C79.9666 129.349 66.7998 129.349 53.6257 132.642C40.1332 136.016 26.6332 136.016 13.1407 132.642C9.24233 131.668 5.34464 130.982 1.4472 130.584V148.233C7.15284 148.453 12.8583 149.276 18.5624 150.702C31.7365 153.996 44.9032 153.996 58.0773 150.702C71.5699 147.329 85.0698 147.329 98.5624 150.702C111.736 153.996 124.903 153.996 138.077 150.702C151.57 147.329 165.07 147.329 178.562 150.702C191.736 153.996 204.903 153.996 218.077 150.702C231.57 147.329 245.07 147.329 258.562 150.702C271.736 153.996 284.903 153.996 298.077 150.702C311.57 147.329 325.07 147.329 338.562 150.702C340.815 151.265 343.067 151.732 345.319 152.103V134.771ZM1.4472 208.574V190.938C4.36568 191.345 7.28435 191.913 10.2034 192.642C23.696 196.016 37.1959 196.016 50.6885 192.642C63.8625 189.349 77.0293 189.349 90.2034 192.642C103.696 196.016 117.196 196.016 130.688 192.642C143.863 189.349 157.029 189.349 170.203 192.642C183.696 196.016 197.196 196.016 210.688 192.642C223.863 189.349 237.029 189.349 250.203 192.642C263.696 196.016 277.196 196.016 290.688 192.642C303.863 189.349 317.029 189.349 330.203 192.642C335.241 193.902 340.28 194.691 345.319 195.01V212.761C341.422 212.363 337.524 211.677 333.626 210.702C320.133 207.329 306.633 207.329 293.141 210.702C279.967 213.996 266.8 213.996 253.626 210.702C240.133 207.329 226.633 207.329 213.141 210.702C199.967 213.996 186.8 213.996 173.626 210.702C160.133 207.329 146.633 207.329 133.141 210.702C119.967 213.996 106.8 213.996 93.6257 210.702C80.1332 207.329 66.6332 207.329 53.1407 210.702C39.9666 213.996 26.7998 213.996 13.6257 210.702C9.56676 209.687 5.50712 208.978 1.4472 208.574ZM10.6885 190.702C7.60836 189.932 4.52789 189.338 1.4472 188.919V170.584C5.34464 170.982 9.24233 171.668 13.1407 172.642C26.6332 176.016 40.1332 176.016 53.6257 172.642C66.7998 169.349 79.9666 169.349 93.1407 172.642C106.633 176.016 120.133 176.016 133.626 172.642C146.8 169.349 159.967 169.349 173.141 172.642C186.633 176.016 200.133 176.016 213.626 172.642C226.8 169.349 239.967 169.349 253.141 172.642C266.633 176.016 280.133 176.016 293.626 172.642C306.8 169.349 319.967 169.349 333.141 172.642C337.2 173.657 341.259 174.367 345.319 174.771V193.006C340.443 192.689 335.566 191.922 330.688 190.702C317.196 187.329 303.696 187.329 290.203 190.702C277.029 193.996 263.863 193.996 250.688 190.702C237.196 187.329 223.696 187.329 210.203 190.702C197.029 193.996 183.863 193.996 170.688 190.702C157.196 187.329 143.696 187.329 130.203 190.702C117.029 193.996 103.863 193.996 90.6885 190.702C77.1959 187.329 63.696 187.329 50.2034 190.702C37.0293 193.996 23.8626 193.996 10.6885 190.702ZM345.319 172.761C341.422 172.363 337.524 171.677 333.626 170.702C320.133 167.329 306.633 167.329 293.141 170.702C279.967 173.996 266.8 173.996 253.626 170.702C240.133 167.329 226.633 167.329 213.141 170.702C199.967 173.996 186.8 173.996 173.626 170.702C160.133 167.329 146.633 167.329 133.141 170.702C119.967 173.996 106.8 173.996 93.6257 170.702C80.1332 167.329 66.6332 167.329 53.1407 170.702C39.9666 173.996 26.7998 173.996 13.6257 170.702C9.56676 169.687 5.50712 168.978 1.4472 168.574V150.234C6.99001 150.454 12.533 151.256 18.0773 152.642C31.5699 156.016 45.0698 156.016 58.5624 152.642C71.7365 149.349 84.9032 149.349 98.0773 152.642C111.57 156.016 125.07 156.016 138.562 152.642C151.736 149.349 164.903 149.349 178.077 152.642C191.57 156.016 205.07 156.016 218.562 152.642C231.736 149.349 244.903 149.349 258.077 152.642C271.57 156.016 285.07 156.016 298.562 152.642C311.736 149.349 324.903 149.349 338.077 152.642C340.491 153.246 342.905 153.741 345.319 154.129V172.761ZM1.4472 230.584V260.609C1.4472 300.926 34.1304 333.609 74.4472 333.609H272.319C298.97 333.609 322.284 319.328 335.028 298.001C224.89 299.643 5.44592 297.638 5.44592 276.503C5.44595 255.342 226.37 242.368 335.446 235.172C255.204 244.541 101.098 263.093 101.098 273.674C101.098 284.237 254.687 295.203 335.041 297.981C341.568 287.049 345.319 274.267 345.319 260.609V234.771C341.259 234.367 337.2 233.657 333.141 232.642C319.967 229.349 306.8 229.349 293.626 232.642C280.133 236.016 266.633 236.016 253.141 232.642C239.967 229.349 226.8 229.349 213.626 232.642C200.133 236.016 186.633 236.016 173.141 232.642C159.967 229.349 146.8 229.349 133.626 232.642C120.133 236.016 106.633 236.016 93.1407 232.642C79.9666 229.349 66.7998 229.349 53.6257 232.642C40.1332 236.016 26.6332 236.016 13.1407 232.642C9.24233 231.668 5.34464 230.982 1.4472 230.584ZM1.4472 228.574C5.50712 228.978 9.56676 229.687 13.6257 230.702C26.7998 233.996 39.9666 233.996 53.1407 230.702C66.6332 227.329 80.1332 227.329 93.6257 230.702C106.8 233.996 119.967 233.996 133.141 230.702C146.633 227.329 160.133 227.329 173.626 230.702C186.8 233.996 199.967 233.996 213.141 230.702C226.633 227.329 240.133 227.329 253.626 230.702C266.8 233.996 279.967 233.996 293.141 230.702C306.633 227.329 320.133 227.329 333.626 230.702C337.524 231.677 341.422 232.363 345.319 232.761V214.771C341.259 214.367 337.2 213.657 333.141 212.642C319.967 209.349 306.8 209.349 293.626 212.642C280.133 216.016 266.633 216.016 253.141 212.642C239.967 209.349 226.8 209.349 213.626 212.642C200.133 216.016 186.633 216.016 173.141 212.642C159.967 209.349 146.8 209.349 133.626 212.642C120.133 216.016 106.633 216.016 93.1407 212.642C79.9666 209.349 66.7998 209.349 53.6257 212.642C40.1332 216.016 26.6332 216.016 13.1407 212.642C9.24233 211.668 5.34464 210.982 1.4472 210.584V228.574Z" fill="url(#paint1_linear_13_95)" fill-opacity="0.2" shape-rendering="crispEdges"/>
<path fill-rule="evenodd" clip-rule="evenodd" d="M74.4472 0.305908C34.1304 0.305908 1.4472 32.9892 1.4472 73.306V108.574C5.50712 108.978 9.56676 109.687 13.6257 110.702C26.7998 113.996 39.9666 113.996 53.1407 110.702C66.6332 107.329 80.1332 107.329 93.6257 110.702C106.8 113.996 119.967 113.996 133.141 110.702C146.633 107.329 160.133 107.329 173.626 110.702C186.8 113.996 199.967 113.996 213.141 110.702C226.633 107.329 240.133 107.329 253.626 110.702C266.8 113.996 279.967 113.996 293.141 110.702C306.633 107.329 320.133 107.329 333.626 110.702C337.524 111.677 341.422 112.363 345.319 112.761V81.3142V73.3059C345.319 32.9891 312.636 0.305908 272.319 0.305908H74.4472ZM345.319 81.3142C345.319 102.476 122.653 104.459 11.3205 102.806C92.5344 100.051 248.508 89.0658 248.508 78.4852C248.508 67.9046 92.5344 49.3518 11.3205 39.9835C122.653 44.9432 345.319 60.1529 345.319 81.3142ZM1.4472 128.574V110.584C5.34464 110.982 9.24233 111.668 13.1407 112.642C26.6332 116.016 40.1332 116.016 53.6257 112.642C66.7998 109.349 79.9666 109.349 93.1407 112.642C106.633 116.016 120.133 116.016 133.626 112.642C146.8 109.349 159.967 109.349 173.141 112.642C186.633 116.016 200.133 116.016 213.626 112.642C226.8 109.349 239.967 109.349 253.141 112.642C266.633 116.016 280.133 116.016 293.626 112.642C306.8 109.349 319.967 109.349 333.141 112.642C337.2 113.657 341.259 114.367 345.319 114.771V132.761C341.422 132.363 337.524 131.677 333.626 130.702C320.133 127.329 306.633 127.329 293.141 130.702C279.967 133.996 266.8 133.996 253.626 130.702C240.133 127.329 226.633 127.329 213.141 130.702C199.967 133.996 186.8 133.996 173.626 130.702C160.133 127.329 146.633 127.329 133.141 130.702C119.967 133.996 106.8 133.996 93.6257 130.702C80.1332 127.329 66.6332 127.329 53.1407 130.702C39.9666 133.996 26.7998 133.996 13.6257 130.702C9.56676 129.687 5.50712 128.978 1.4472 128.574ZM345.319 134.771C341.259 134.367 337.2 133.657 333.141 132.642C319.967 129.349 306.8 129.349 293.626 132.642C280.133 136.016 266.633 136.016 253.141 132.642C239.967 129.349 226.8 129.349 213.626 132.642C200.133 136.016 186.633 136.016 173.141 132.642C159.967 129.349 146.8 129.349 133.626 132.642C120.133 136.016 106.633 136.016 93.1407 132.642C79.9666 129.349 66.7998 129.349 53.6257 132.642C40.1332 136.016 26.6332 136.016 13.1407 132.642C9.24233 131.668 5.34464 130.982 1.4472 130.584V148.233C7.15284 148.453 12.8583 149.276 18.5624 150.702C31.7365 153.996 44.9032 153.996 58.0773 150.702C71.5699 147.329 85.0698 147.329 98.5624 150.702C111.736 153.996 124.903 153.996 138.077 150.702C151.57 147.329 165.07 147.329 178.562 150.702C191.736 153.996 204.903 153.996 218.077 150.702C231.57 147.329 245.07 147.329 258.562 150.702C271.736 153.996 284.903 153.996 298.077 150.702C311.57 147.329 325.07 147.329 338.562 150.702C340.815 151.265 343.067 151.732 345.319 152.103V134.771ZM1.4472 208.574V190.938C4.36568 191.345 7.28435 191.913 10.2034 192.642C23.696 196.016 37.1959 196.016 50.6885 192.642C63.8625 189.349 77.0293 189.349 90.2034 192.642C103.696 196.016 117.196 196.016 130.688 192.642C143.863 189.349 157.029 189.349 170.203 192.642C183.696 196.016 197.196 196.016 210.688 192.642C223.863 189.349 237.029 189.349 250.203 192.642C263.696 196.016 277.196 196.016 290.688 192.642C303.863 189.349 317.029 189.349 330.203 192.642C335.241 193.902 340.28 194.691 345.319 195.01V212.761C341.422 212.363 337.524 211.677 333.626 210.702C320.133 207.329 306.633 207.329 293.141 210.702C279.967 213.996 266.8 213.996 253.626 210.702C240.133 207.329 226.633 207.329 213.141 210.702C199.967 213.996 186.8 213.996 173.626 210.702C160.133 207.329 146.633 207.329 133.141 210.702C119.967 213.996 106.8 213.996 93.6257 210.702C80.1332 207.329 66.6332 207.329 53.1407 210.702C39.9666 213.996 26.7998 213.996 13.6257 210.702C9.56676 209.687 5.50712 208.978 1.4472 208.574ZM10.6885 190.702C7.60836 189.932 4.52789 189.338 1.4472 188.919V170.584C5.34464 170.982 9.24233 171.668 13.1407 172.642C26.6332 176.016 40.1332 176.016 53.6257 172.642C66.7998 169.349 79.9666 169.349 93.1407 172.642C106.633 176.016 120.133 176.016 133.626 172.642C146.8 169.349 159.967 169.349 173.141 172.642C186.633 176.016 200.133 176.016 213.626 172.642C226.8 169.349 239.967 169.349 253.141 172.642C266.633 176.016 280.133 176.016 293.626 172.642C306.8 169.349 319.967 169.349 333.141 172.642C337.2 173.657 341.259 174.367 345.319 174.771V193.006C340.443 192.689 335.566 191.922 330.688 190.702C317.196 187.329 303.696 187.329 290.203 190.702C277.029 193.996 263.863 193.996 250.688 190.702C237.196 187.329 223.696 187.329 210.203 190.702C197.029 193.996 183.863 193.996 170.688 190.702C157.196 187.329 143.696 187.329 130.203 190.702C117.029 193.996 103.863 193.996 90.6885 190.702C77.1959 187.329 63.696 187.329 50.2034 190.702C37.0293 193.996 23.8626 193.996 10.6885 190.702ZM345.319 172.761C341.422 172.363 337.524 171.677 333.626 170.702C320.133 167.329 306.633 167.329 293.141 170.702C279.967 173.996 266.8 173.996 253.626 170.702C240.133 167.329 226.633 167.329 213.141 170.702C199.967 173.996 186.8 173.996 173.626 170.702C160.133 167.329 146.633 167.329 133.141 170.702C119.967 173.996 106.8 173.996 93.6257 170.702C80.1332 167.329 66.6332 167.329 53.1407 170.702C39.9666 173.996 26.7998 173.996 13.6257 170.702C9.56676 169.687 5.50712 168.978 1.4472 168.574V150.234C6.99001 150.454 12.533 151.256 18.0773 152.642C31.5699 156.016 45.0698 156.016 58.5624 152.642C71.7365 149.349 84.9032 149.349 98.0773 152.642C111.57 156.016 125.07 156.016 138.562 152.642C151.736 149.349 164.903 149.349 178.077 152.642C191.57 156.016 205.07 156.016 218.562 152.642C231.736 149.349 244.903 149.349 258.077 152.642C271.57 156.016 285.07 156.016 298.562 152.642C311.736 149.349 324.903 149.349 338.077 152.642C340.491 153.246 342.905 153.741 345.319 154.129V172.761ZM1.4472 230.584V260.609C1.4472 300.926 34.1304 333.609 74.4472 333.609H272.319C298.97 333.609 322.284 319.328 335.028 298.001C224.89 299.643 5.44592 297.638 5.44592 276.503C5.44595 255.342 226.37 242.368 335.446 235.172C255.204 244.541 101.098 263.093 101.098 273.674C101.098 284.237 254.687 295.203 335.041 297.981C341.568 287.049 345.319 274.267 345.319 260.609V234.771C341.259 234.367 337.2 233.657 333.141 232.642C319.967 229.349 306.8 229.349 293.626 232.642C280.133 236.016 266.633 236.016 253.141 232.642C239.967 229.349 226.8 229.349 213.626 232.642C200.133 236.016 186.633 236.016 173.141 232.642C159.967 229.349 146.8 229.349 133.626 232.642C120.133 236.016 106.633 236.016 93.1407 232.642C79.9666 229.349 66.7998 229.349 53.6257 232.642C40.1332 236.016 26.6332 236.016 13.1407 232.642C9.24233 231.668 5.34464 230.982 1.4472 230.584ZM1.4472 228.574C5.50712 228.978 9.56676 229.687 13.6257 230.702C26.7998 233.996 39.9666 233.996 53.1407 230.702C66.6332 227.329 80.1332 227.329 93.6257 230.702C106.8 233.996 119.967 233.996 133.141 230.702C146.633 227.329 160.133 227.329 173.626 230.702C186.8 233.996 199.967 233.996 213.141 230.702C226.633 227.329 240.133 227.329 253.626 230.702C266.8 233.996 279.967 233.996 293.141 230.702C306.633 227.329 320.133 227.329 333.626 230.702C337.524 231.677 341.422 232.363 345.319 232.761V214.771C341.259 214.367 337.2 213.657 333.141 212.642C319.967 209.349 306.8 209.349 293.626 212.642C280.133 216.016 266.633 216.016 253.141 212.642C239.967 209.349 226.8 209.349 213.626 212.642C200.133 216.016 186.633 216.016 173.141 212.642C159.967 209.349 146.8 209.349 133.626 212.642C120.133 216.016 106.633 216.016 93.1407 212.642C79.9666 209.349 66.7998 209.349 53.6257 212.642C40.1332 216.016 26.6332 216.016 13.1407 212.642C9.24233 211.668 5.34464 210.982 1.4472 210.584V228.574Z" fill="url(#paint2_linear_13_95)" fill-opacity="0.2" shape-rendering="crispEdges"/>
<path fill-rule="evenodd" clip-rule="evenodd" d="M74.4472 0.305908C34.1304 0.305908 1.4472 32.9892 1.4472 73.306V108.574C5.50712 108.978 9.56676 109.687 13.6257 110.702C26.7998 113.996 39.9666 113.996 53.1407 110.702C66.6332 107.329 80.1332 107.329 93.6257 110.702C106.8 113.996 119.967 113.996 133.141 110.702C146.633 107.329 160.133 107.329 173.626 110.702C186.8 113.996 199.967 113.996 213.141 110.702C226.633 107.329 240.133 107.329 253.626 110.702C266.8 113.996 279.967 113.996 293.141 110.702C306.633 107.329 320.133 107.329 333.626 110.702C337.524 111.677 341.422 112.363 345.319 112.761V81.3142V73.3059C345.319 32.9891 312.636 0.305908 272.319 0.305908H74.4472ZM345.319 81.3142C345.319 102.476 122.653 104.459 11.3205 102.806C92.5344 100.051 248.508 89.0658 248.508 78.4852C248.508 67.9046 92.5344 49.3518 11.3205 39.9835C122.653 44.9432 345.319 60.1529 345.319 81.3142ZM1.4472 128.574V110.584C5.34464 110.982 9.24233 111.668 13.1407 112.642C26.6332 116.016 40.1332 116.016 53.6257 112.642C66.7998 109.349 79.9666 109.349 93.1407 112.642C106.633 116.016 120.133 116.016 133.626 112.642C146.8 109.349 159.967 109.349 173.141 112.642C186.633 116.016 200.133 116.016 213.626 112.642C226.8 109.349 239.967 109.349 253.141 112.642C266.633 116.016 280.133 116.016 293.626 112.642C306.8 109.349 319.967 109.349 333.141 112.642C337.2 113.657 341.259 114.367 345.319 114.771V132.761C341.422 132.363 337.524 131.677 333.626 130.702C320.133 127.329 306.633 127.329 293.141 130.702C279.967 133.996 266.8 133.996 253.626 130.702C240.133 127.329 226.633 127.329 213.141 130.702C199.967 133.996 186.8 133.996 173.626 130.702C160.133 127.329 146.633 127.329 133.141 130.702C119.967 133.996 106.8 133.996 93.6257 130.702C80.1332 127.329 66.6332 127.329 53.1407 130.702C39.9666 133.996 26.7998 133.996 13.6257 130.702C9.56676 129.687 5.50712 128.978 1.4472 128.574ZM345.319 134.771C341.259 134.367 337.2 133.657 333.141 132.642C319.967 129.349 306.8 129.349 293.626 132.642C280.133 136.016 266.633 136.016 253.141 132.642C239.967 129.349 226.8 129.349 213.626 132.642C200.133 136.016 186.633 136.016 173.141 132.642C159.967 129.349 146.8 129.349 133.626 132.642C120.133 136.016 106.633 136.016 93.1407 132.642C79.9666 129.349 66.7998 129.349 53.6257 132.642C40.1332 136.016 26.6332 136.016 13.1407 132.642C9.24233 131.668 5.34464 130.982 1.4472 130.584V148.233C7.15284 148.453 12.8583 149.276 18.5624 150.702C31.7365 153.996 44.9032 153.996 58.0773 150.702C71.5699 147.329 85.0698 147.329 98.5624 150.702C111.736 153.996 124.903 153.996 138.077 150.702C151.57 147.329 165.07 147.329 178.562 150.702C191.736 153.996 204.903 153.996 218.077 150.702C231.57 147.329 245.07 147.329 258.562 150.702C271.736 153.996 284.903 153.996 298.077 150.702C311.57 147.329 325.07 147.329 338.562 150.702C340.815 151.265 343.067 151.732 345.319 152.103V134.771ZM1.4472 208.574V190.938C4.36568 191.345 7.28435 191.913 10.2034 192.642C23.696 196.016 37.1959 196.016 50.6885 192.642C63.8625 189.349 77.0293 189.349 90.2034 192.642C103.696 196.016 117.196 196.016 130.688 192.642C143.863 189.349 157.029 189.349 170.203 192.642C183.696 196.016 197.196 196.016 210.688 192.642C223.863 189.349 237.029 189.349 250.203 192.642C263.696 196.016 277.196 196.016 290.688 192.642C303.863 189.349 317.029 189.349 330.203 192.642C335.241 193.902 340.28 194.691 345.319 195.01V212.761C341.422 212.363 337.524 211.677 333.626 210.702C320.133 207.329 306.633 207.329 293.141 210.702C279.967 213.996 266.8 213.996 253.626 210.702C240.133 207.329 226.633 207.329 213.141 210.702C199.967 213.996 186.8 213.996 173.626 210.702C160.133 207.329 146.633 207.329 133.141 210.702C119.967 213.996 106.8 213.996 93.6257 210.702C80.1332 207.329 66.6332 207.329 53.1407 210.702C39.9666 213.996 26.7998 213.996 13.6257 210.702C9.56676 209.687 5.50712 208.978 1.4472 208.574ZM10.6885 190.702C7.60836 189.932 4.52789 189.338 1.4472 188.919V170.584C5.34464 170.982 9.24233 171.668 13.1407 172.642C26.6332 176.016 40.1332 176.016 53.6257 172.642C66.7998 169.349 79.9666 169.349 93.1407 172.642C106.633 176.016 120.133 176.016 133.626 172.642C146.8 169.349 159.967 169.349 173.141 172.642C186.633 176.016 200.133 176.016 213.626 172.642C226.8 169.349 239.967 169.349 253.141 172.642C266.633 176.016 280.133 176.016 293.626 172.642C306.8 169.349 319.967 169.349 333.141 172.642C337.2 173.657 341.259 174.367 345.319 174.771V193.006C340.443 192.689 335.566 191.922 330.688 190.702C317.196 187.329 303.696 187.329 290.203 190.702C277.029 193.996 263.863 193.996 250.688 190.702C237.196 187.329 223.696 187.329 210.203 190.702C197.029 193.996 183.863 193.996 170.688 190.702C157.196 187.329 143.696 187.329 130.203 190.702C117.029 193.996 103.863 193.996 90.6885 190.702C77.1959 187.329 63.696 187.329 50.2034 190.702C37.0293 193.996 23.8626 193.996 10.6885 190.702ZM345.319 172.761C341.422 172.363 337.524 171.677 333.626 170.702C320.133 167.329 306.633 167.329 293.141 170.702C279.967 173.996 266.8 173.996 253.626 170.702C240.133 167.329 226.633 167.329 213.141 170.702C199.967 173.996 186.8 173.996 173.626 170.702C160.133 167.329 146.633 167.329 133.141 170.702C119.967 173.996 106.8 173.996 93.6257 170.702C80.1332 167.329 66.6332 167.329 53.1407 170.702C39.9666 173.996 26.7998 173.996 13.6257 170.702C9.56676 169.687 5.50712 168.978 1.4472 168.574V150.234C6.99001 150.454 12.533 151.256 18.0773 152.642C31.5699 156.016 45.0698 156.016 58.5624 152.642C71.7365 149.349 84.9032 149.349 98.0773 152.642C111.57 156.016 125.07 156.016 138.562 152.642C151.736 149.349 164.903 149.349 178.077 152.642C191.57 156.016 205.07 156.016 218.562 152.642C231.736 149.349 244.903 149.349 258.077 152.642C271.57 156.016 285.07 156.016 298.562 152.642C311.736 149.349 324.903 149.349 338.077 152.642C340.491 153.246 342.905 153.741 345.319 154.129V172.761ZM1.4472 230.584V260.609C1.4472 300.926 34.1304 333.609 74.4472 333.609H272.319C298.97 333.609 322.284 319.328 335.028 298.001C224.89 299.643 5.44592 297.638 5.44592 276.503C5.44595 255.342 226.37 242.368 335.446 235.172C255.204 244.541 101.098 263.093 101.098 273.674C101.098 284.237 254.687 295.203 335.041 297.981C341.568 287.049 345.319 274.267 345.319 260.609V234.771C341.259 234.367 337.2 233.657 333.141 232.642C319.967 229.349 306.8 229.349 293.626 232.642C280.133 236.016 266.633 236.016 253.141 232.642C239.967 229.349 226.8 229.349 213.626 232.642C200.133 236.016 186.633 236.016 173.141 232.642C159.967 229.349 146.8 229.349 133.626 232.642C120.133 236.016 106.633 236.016 93.1407 232.642C79.9666 229.349 66.7998 229.349 53.6257 232.642C40.1332 236.016 26.6332 236.016 13.1407 232.642C9.24233 231.668 5.34464 230.982 1.4472 230.584ZM1.4472 228.574C5.50712 228.978 9.56676 229.687 13.6257 230.702C26.7998 233.996 39.9666 233.996 53.1407 230.702C66.6332 227.329 80.1332 227.329 93.6257 230.702C106.8 233.996 119.967 233.996 133.141 230.702C146.633 227.329 160.133 227.329 173.626 230.702C186.8 233.996 199.967 233.996 213.141 230.702C226.633 227.329 240.133 227.329 253.626 230.702C266.8 233.996 279.967 233.996 293.141 230.702C306.633 227.329 320.133 227.329 333.626 230.702C337.524 231.677 341.422 232.363 345.319 232.761V214.771C341.259 214.367 337.2 213.657 333.141 212.642C319.967 209.349 306.8 209.349 293.626 212.642C280.133 216.016 266.633 216.016 253.141 212.642C239.967 209.349 226.8 209.349 213.626 212.642C200.133 216.016 186.633 216.016 173.141 212.642C159.967 209.349 146.8 209.349 133.626 212.642C120.133 216.016 106.633 216.016 93.1407 212.642C79.9666 209.349 66.7998 209.349 53.6257 212.642C40.1332 216.016 26.6332 216.016 13.1407 212.642C9.24233 211.668 5.34464 210.982 1.4472 210.584V228.574Z" fill="url(#paint3_linear_13_95)" fill-opacity="0.2" shape-rendering="crispEdges"/>
<path fill-rule="evenodd" clip-rule="evenodd" d="M74.4472 0.305908C34.1304 0.305908 1.4472 32.9892 1.4472 73.306V108.574C5.50712 108.978 9.56676 109.687 13.6257 110.702C26.7998 113.996 39.9666 113.996 53.1407 110.702C66.6332 107.329 80.1332 107.329 93.6257 110.702C106.8 113.996 119.967 113.996 133.141 110.702C146.633 107.329 160.133 107.329 173.626 110.702C186.8 113.996 199.967 113.996 213.141 110.702C226.633 107.329 240.133 107.329 253.626 110.702C266.8 113.996 279.967 113.996 293.141 110.702C306.633 107.329 320.133 107.329 333.626 110.702C337.524 111.677 341.422 112.363 345.319 112.761V81.3142V73.3059C345.319 32.9891 312.636 0.305908 272.319 0.305908H74.4472ZM345.319 81.3142C345.319 102.476 122.653 104.459 11.3205 102.806C92.5344 100.051 248.508 89.0658 248.508 78.4852C248.508 67.9046 92.5344 49.3518 11.3205 39.9835C122.653 44.9432 345.319 60.1529 345.319 81.3142ZM1.4472 128.574V110.584C5.34464 110.982 9.24233 111.668 13.1407 112.642C26.6332 116.016 40.1332 116.016 53.6257 112.642C66.7998 109.349 79.9666 109.349 93.1407 112.642C106.633 116.016 120.133 116.016 133.626 112.642C146.8 109.349 159.967 109.349 173.141 112.642C186.633 116.016 200.133 116.016 213.626 112.642C226.8 109.349 239.967 109.349 253.141 112.642C266.633 116.016 280.133 116.016 293.626 112.642C306.8 109.349 319.967 109.349 333.141 112.642C337.2 113.657 341.259 114.367 345.319 114.771V132.761C341.422 132.363 337.524 131.677 333.626 130.702C320.133 127.329 306.633 127.329 293.141 130.702C279.967 133.996 266.8 133.996 253.626 130.702C240.133 127.329 226.633 127.329 213.141 130.702C199.967 133.996 186.8 133.996 173.626 130.702C160.133 127.329 146.633 127.329 133.141 130.702C119.967 133.996 106.8 133.996 93.6257 130.702C80.1332 127.329 66.6332 127.329 53.1407 130.702C39.9666 133.996 26.7998 133.996 13.6257 130.702C9.56676 129.687 5.50712 128.978 1.4472 128.574ZM345.319 134.771C341.259 134.367 337.2 133.657 333.141 132.642C319.967 129.349 306.8 129.349 293.626 132.642C280.133 136.016 266.633 136.016 253.141 132.642C239.967 129.349 226.8 129.349 213.626 132.642C200.133 136.016 186.633 136.016 173.141 132.642C159.967 129.349 146.8 129.349 133.626 132.642C120.133 136.016 106.633 136.016 93.1407 132.642C79.9666 129.349 66.7998 129.349 53.6257 132.642C40.1332 136.016 26.6332 136.016 13.1407 132.642C9.24233 131.668 5.34464 130.982 1.4472 130.584V148.233C7.15284 148.453 12.8583 149.276 18.5624 150.702C31.7365 153.996 44.9032 153.996 58.0773 150.702C71.5699 147.329 85.0698 147.329 98.5624 150.702C111.736 153.996 124.903 153.996 138.077 150.702C151.57 147.329 165.07 147.329 178.562 150.702C191.736 153.996 204.903 153.996 218.077 150.702C231.57 147.329 245.07 147.329 258.562 150.702C271.736 153.996 284.903 153.996 298.077 150.702C311.57 147.329 325.07 147.329 338.562 150.702C340.815 151.265 343.067 151.732 345.319 152.103V134.771ZM1.4472 208.574V190.938C4.36568 191.345 7.28435 191.913 10.2034 192.642C23.696 196.016 37.1959 196.016 50.6885 192.642C63.8625 189.349 77.0293 189.349 90.2034 192.642C103.696 196.016 117.196 196.016 130.688 192.642C143.863 189.349 157.029 189.349 170.203 192.642C183.696 196.016 197.196 196.016 210.688 192.642C223.863 189.349 237.029 189.349 250.203 192.642C263.696 196.016 277.196 196.016 290.688 192.642C303.863 189.349 317.029 189.349 330.203 192.642C335.241 193.902 340.28 194.691 345.319 195.01V212.761C341.422 212.363 337.524 211.677 333.626 210.702C320.133 207.329 306.633 207.329 293.141 210.702C279.967 213.996 266.8 213.996 253.626 210.702C240.133 207.329 226.633 207.329 213.141 210.702C199.967 213.996 186.8 213.996 173.626 210.702C160.133 207.329 146.633 207.329 133.141 210.702C119.967 213.996 106.8 213.996 93.6257 210.702C80.1332 207.329 66.6332 207.329 53.1407 210.702C39.9666 213.996 26.7998 213.996 13.6257 210.702C9.56676 209.687 5.50712 208.978 1.4472 208.574ZM10.6885 190.702C7.60836 189.932 4.52789 189.338 1.4472 188.919V170.584C5.34464 170.982 9.24233 171.668 13.1407 172.642C26.6332 176.016 40.1332 176.016 53.6257 172.642C66.7998 169.349 79.9666 169.349 93.1407 172.642C106.633 176.016 120.133 176.016 133.626 172.642C146.8 169.349 159.967 169.349 173.141 172.642C186.633 176.016 200.133 176.016 213.626 172.642C226.8 169.349 239.967 169.349 253.141 172.642C266.633 176.016 280.133 176.016 293.626 172.642C306.8 169.349 319.967 169.349 333.141 172.642C337.2 173.657 341.259 174.367 345.319 174.771V193.006C340.443 192.689 335.566 191.922 330.688 190.702C317.196 187.329 303.696 187.329 290.203 190.702C277.029 193.996 263.863 193.996 250.688 190.702C237.196 187.329 223.696 187.329 210.203 190.702C197.029 193.996 183.863 193.996 170.688 190.702C157.196 187.329 143.696 187.329 130.203 190.702C117.029 193.996 103.863 193.996 90.6885 190.702C77.1959 187.329 63.696 187.329 50.2034 190.702C37.0293 193.996 23.8626 193.996 10.6885 190.702ZM345.319 172.761C341.422 172.363 337.524 171.677 333.626 170.702C320.133 167.329 306.633 167.329 293.141 170.702C279.967 173.996 266.8 173.996 253.626 170.702C240.133 167.329 226.633 167.329 213.141 170.702C199.967 173.996 186.8 173.996 173.626 170.702C160.133 167.329 146.633 167.329 133.141 170.702C119.967 173.996 106.8 173.996 93.6257 170.702C80.1332 167.329 66.6332 167.329 53.1407 170.702C39.9666 173.996 26.7998 173.996 13.6257 170.702C9.56676 169.687 5.50712 168.978 1.4472 168.574V150.234C6.99001 150.454 12.533 151.256 18.0773 152.642C31.5699 156.016 45.0698 156.016 58.5624 152.642C71.7365 149.349 84.9032 149.349 98.0773 152.642C111.57 156.016 125.07 156.016 138.562 152.642C151.736 149.349 164.903 149.349 178.077 152.642C191.57 156.016 205.07 156.016 218.562 152.642C231.736 149.349 244.903 149.349 258.077 152.642C271.57 156.016 285.07 156.016 298.562 152.642C311.736 149.349 324.903 149.349 338.077 152.642C340.491 153.246 342.905 153.741 345.319 154.129V172.761ZM1.4472 230.584V260.609C1.4472 300.926 34.1304 333.609 74.4472 333.609H272.319C298.97 333.609 322.284 319.328 335.028 298.001C224.89 299.643 5.44592 297.638 5.44592 276.503C5.44595 255.342 226.37 242.368 335.446 235.172C255.204 244.541 101.098 263.093 101.098 273.674C101.098 284.237 254.687 295.203 335.041 297.981C341.568 287.049 345.319 274.267 345.319 260.609V234.771C341.259 234.367 337.2 233.657 333.141 232.642C319.967 229.349 306.8 229.349 293.626 232.642C280.133 236.016 266.633 236.016 253.141 232.642C239.967 229.349 226.8 229.349 213.626 232.642C200.133 236.016 186.633 236.016 173.141 232.642C159.967 229.349 146.8 229.349 133.626 232.642C120.133 236.016 106.633 236.016 93.1407 232.642C79.9666 229.349 66.7998 229.349 53.6257 232.642C40.1332 236.016 26.6332 236.016 13.1407 232.642C9.24233 231.668 5.34464 230.982 1.4472 230.584ZM1.4472 228.574C5.50712 228.978 9.56676 229.687 13.6257 230.702C26.7998 233.996 39.9666 233.996 53.1407 230.702C66.6332 227.329 80.1332 227.329 93.6257 230.702C106.8 233.996 119.967 233.996 133.141 230.702C146.633 227.329 160.133 227.329 173.626 230.702C186.8 233.996 199.967 233.996 213.141 230.702C226.633 227.329 240.133 227.329 253.626 230.702C266.8 233.996 279.967 233.996 293.141 230.702C306.633 227.329 320.133 227.329 333.626 230.702C337.524 231.677 341.422 232.363 345.319 232.761V214.771C341.259 214.367 337.2 213.657 333.141 212.642C319.967 209.349 306.8 209.349 293.626 212.642C280.133 216.016 266.633 216.016 253.141 212.642C239.967 209.349 226.8 209.349 213.626 212.642C200.133 216.016 186.633 216.016 173.141 212.642C159.967 209.349 146.8 209.349 133.626 212.642C120.133 216.016 106.633 216.016 93.1407 212.642C79.9666 209.349 66.7998 209.349 53.6257 212.642C40.1332 216.016 26.6332 216.016 13.1407 212.642C9.24233 211.668 5.34464 210.982 1.4472 210.584V228.574Z" fill="url(#paint4_linear_13_95)" fill-opacity="0.2" shape-rendering="crispEdges"/>
<path fill-rule="evenodd" clip-rule="evenodd" d="M74.4472 0.305908C34.1304 0.305908 1.4472 32.9892 1.4472 73.306V108.574C5.50712 108.978 9.56676 109.687 13.6257 110.702C26.7998 113.996 39.9666 113.996 53.1407 110.702C66.6332 107.329 80.1332 107.329 93.6257 110.702C106.8 113.996 119.967 113.996 133.141 110.702C146.633 107.329 160.133 107.329 173.626 110.702C186.8 113.996 199.967 113.996 213.141 110.702C226.633 107.329 240.133 107.329 253.626 110.702C266.8 113.996 279.967 113.996 293.141 110.702C306.633 107.329 320.133 107.329 333.626 110.702C337.524 111.677 341.422 112.363 345.319 112.761V81.3142V73.3059C345.319 32.9891 312.636 0.305908 272.319 0.305908H74.4472ZM345.319 81.3142C345.319 102.476 122.653 104.459 11.3205 102.806C92.5344 100.051 248.508 89.0658 248.508 78.4852C248.508 67.9046 92.5344 49.3518 11.3205 39.9835C122.653 44.9432 345.319 60.1529 345.319 81.3142ZM1.4472 128.574V110.584C5.34464 110.982 9.24233 111.668 13.1407 112.642C26.6332 116.016 40.1332 116.016 53.6257 112.642C66.7998 109.349 79.9666 109.349 93.1407 112.642C106.633 116.016 120.133 116.016 133.626 112.642C146.8 109.349 159.967 109.349 173.141 112.642C186.633 116.016 200.133 116.016 213.626 112.642C226.8 109.349 239.967 109.349 253.141 112.642C266.633 116.016 280.133 116.016 293.626 112.642C306.8 109.349 319.967 109.349 333.141 112.642C337.2 113.657 341.259 114.367 345.319 114.771V132.761C341.422 132.363 337.524 131.677 333.626 130.702C320.133 127.329 306.633 127.329 293.141 130.702C279.967 133.996 266.8 133.996 253.626 130.702C240.133 127.329 226.633 127.329 213.141 130.702C199.967 133.996 186.8 133.996 173.626 130.702C160.133 127.329 146.633 127.329 133.141 130.702C119.967 133.996 106.8 133.996 93.6257 130.702C80.1332 127.329 66.6332 127.329 53.1407 130.702C39.9666 133.996 26.7998 133.996 13.6257 130.702C9.56676 129.687 5.50712 128.978 1.4472 128.574ZM345.319 134.771C341.259 134.367 337.2 133.657 333.141 132.642C319.967 129.349 306.8 129.349 293.626 132.642C280.133 136.016 266.633 136.016 253.141 132.642C239.967 129.349 226.8 129.349 213.626 132.642C200.133 136.016 186.633 136.016 173.141 132.642C159.967 129.349 146.8 129.349 133.626 132.642C120.133 136.016 106.633 136.016 93.1407 132.642C79.9666 129.349 66.7998 129.349 53.6257 132.642C40.1332 136.016 26.6332 136.016 13.1407 132.642C9.24233 131.668 5.34464 130.982 1.4472 130.584V148.233C7.15284 148.453 12.8583 149.276 18.5624 150.702C31.7365 153.996 44.9032 153.996 58.0773 150.702C71.5699 147.329 85.0698 147.329 98.5624 150.702C111.736 153.996 124.903 153.996 138.077 150.702C151.57 147.329 165.07 147.329 178.562 150.702C191.736 153.996 204.903 153.996 218.077 150.702C231.57 147.329 245.07 147.329 258.562 150.702C271.736 153.996 284.903 153.996 298.077 150.702C311.57 147.329 325.07 147.329 338.562 150.702C340.815 151.265 343.067 151.732 345.319 152.103V134.771ZM1.4472 208.574V190.938C4.36568 191.345 7.28435 191.913 10.2034 192.642C23.696 196.016 37.1959 196.016 50.6885 192.642C63.8625 189.349 77.0293 189.349 90.2034 192.642C103.696 196.016 117.196 196.016 130.688 192.642C143.863 189.349 157.029 189.349 170.203 192.642C183.696 196.016 197.196 196.016 210.688 192.642C223.863 189.349 237.029 189.349 250.203 192.642C263.696 196.016 277.196 196.016 290.688 192.642C303.863 189.349 317.029 189.349 330.203 192.642C335.241 193.902 340.28 194.691 345.319 195.01V212.761C341.422 212.363 337.524 211.677 333.626 210.702C320.133 207.329 306.633 207.329 293.141 210.702C279.967 213.996 266.8 213.996 253.626 210.702C240.133 207.329 226.633 207.329 213.141 210.702C199.967 213.996 186.8 213.996 173.626 210.702C160.133 207.329 146.633 207.329 133.141 210.702C119.967 213.996 106.8 213.996 93.6257 210.702C80.1332 207.329 66.6332 207.329 53.1407 210.702C39.9666 213.996 26.7998 213.996 13.6257 210.702C9.56676 209.687 5.50712 208.978 1.4472 208.574ZM10.6885 190.702C7.60836 189.932 4.52789 189.338 1.4472 188.919V170.584C5.34464 170.982 9.24233 171.668 13.1407 172.642C26.6332 176.016 40.1332 176.016 53.6257 172.642C66.7998 169.349 79.9666 169.349 93.1407 172.642C106.633 176.016 120.133 176.016 133.626 172.642C146.8 169.349 159.967 169.349 173.141 172.642C186.633 176.016 200.133 176.016 213.626 172.642C226.8 169.349 239.967 169.349 253.141 172.642C266.633 176.016 280.133 176.016 293.626 172.642C306.8 169.349 319.967 169.349 333.141 172.642C337.2 173.657 341.259 174.367 345.319 174.771V193.006C340.443 192.689 335.566 191.922 330.688 190.702C317.196 187.329 303.696 187.329 290.203 190.702C277.029 193.996 263.863 193.996 250.688 190.702C237.196 187.329 223.696 187.329 210.203 190.702C197.029 193.996 183.863 193.996 170.688 190.702C157.196 187.329 143.696 187.329 130.203 190.702C117.029 193.996 103.863 193.996 90.6885 190.702C77.1959 187.329 63.696 187.329 50.2034 190.702C37.0293 193.996 23.8626 193.996 10.6885 190.702ZM345.319 172.761C341.422 172.363 337.524 171.677 333.626 170.702C320.133 167.329 306.633 167.329 293.141 170.702C279.967 173.996 266.8 173.996 253.626 170.702C240.133 167.329 226.633 167.329 213.141 170.702C199.967 173.996 186.8 173.996 173.626 170.702C160.133 167.329 146.633 167.329 133.141 170.702C119.967 173.996 106.8 173.996 93.6257 170.702C80.1332 167.329 66.6332 167.329 53.1407 170.702C39.9666 173.996 26.7998 173.996 13.6257 170.702C9.56676 169.687 5.50712 168.978 1.4472 168.574V150.234C6.99001 150.454 12.533 151.256 18.0773 152.642C31.5699 156.016 45.0698 156.016 58.5624 152.642C71.7365 149.349 84.9032 149.349 98.0773 152.642C111.57 156.016 125.07 156.016 138.562 152.642C151.736 149.349 164.903 149.349 178.077 152.642C191.57 156.016 205.07 156.016 218.562 152.642C231.736 149.349 244.903 149.349 258.077 152.642C271.57 156.016 285.07 156.016 298.562 152.642C311.736 149.349 324.903 149.349 338.077 152.642C340.491 153.246 342.905 153.741 345.319 154.129V172.761ZM1.4472 230.584V260.609C1.4472 300.926 34.1304 333.609 74.4472 333.609H272.319C298.97 333.609 322.284 319.328 335.028 298.001C224.89 299.643 5.44592 297.638 5.44592 276.503C5.44595 255.342 226.37 242.368 335.446 235.172C255.204 244.541 101.098 263.093 101.098 273.674C101.098 284.237 254.687 295.203 335.041 297.981C341.568 287.049 345.319 274.267 345.319 260.609V234.771C341.259 234.367 337.2 233.657 333.141 232.642C319.967 229.349 306.8 229.349 293.626 232.642C280.133 236.016 266.633 236.016 253.141 232.642C239.967 229.349 226.8 229.349 213.626 232.642C200.133 236.016 186.633 236.016 173.141 232.642C159.967 229.349 146.8 229.349 133.626 232.642C120.133 236.016 106.633 236.016 93.1407 232.642C79.9666 229.349 66.7998 229.349 53.6257 232.642C40.1332 236.016 26.6332 236.016 13.1407 232.642C9.24233 231.668 5.34464 230.982 1.4472 230.584ZM1.4472 228.574C5.50712 228.978 9.56676 229.687 13.6257 230.702C26.7998 233.996 39.9666 233.996 53.1407 230.702C66.6332 227.329 80.1332 227.329 93.6257 230.702C106.8 233.996 119.967 233.996 133.141 230.702C146.633 227.329 160.133 227.329 173.626 230.702C186.8 233.996 199.967 233.996 213.141 230.702C226.633 227.329 240.133 227.329 253.626 230.702C266.8 233.996 279.967 233.996 293.141 230.702C306.633 227.329 320.133 227.329 333.626 230.702C337.524 231.677 341.422 232.363 345.319 232.761V214.771C341.259 214.367 337.2 213.657 333.141 212.642C319.967 209.349 306.8 209.349 293.626 212.642C280.133 216.016 266.633 216.016 253.141 212.642C239.967 209.349 226.8 209.349 213.626 212.642C200.133 216.016 186.633 216.016 173.141 212.642C159.967 209.349 146.8 209.349 133.626 212.642C120.133 216.016 106.633 216.016 93.1407 212.642C79.9666 209.349 66.7998 209.349 53.6257 212.642C40.1332 216.016 26.6332 216.016 13.1407 212.642C9.24233 211.668 5.34464 210.982 1.4472 210.584V228.574Z" fill="url(#paint5_linear_13_95)" fill-opacity="0.2" shape-rendering="crispEdges"/>
</g>
<defs>
<filter id="filter0_d_13_95" x="0.447205" y="0.305908" width="345.872" height="338.303" filterUnits="userSpaceOnUse" color-interpolation-filters="sRGB">
<feFlood flood-opacity="0" result="BackgroundImageFix"/>
<feColorMatrix in="SourceAlpha" type="matrix" values="0 0 0 0 0 0 0 0 0 0 0 0 0 0 0 0 0 0 127 0" result="hardAlpha"/>
<feOffset dy="4"/>
<feGaussianBlur stdDeviation="0.5"/>
<feComposite in2="hardAlpha" operator="out"/>
<feColorMatrix type="matrix" values="0 0 0 0 0 0 0 0 0 0 0 0 0 0 0 0 0 0 0.25 0"/>
<feBlend mode="normal" in2="BackgroundImageFix" result="effect1_dropShadow_13_95"/>
<feBlend mode="normal" in="SourceGraphic" in2="effect1_dropShadow_13_95" result="shape"/>
</filter>
<linearGradient id="paint0_linear_13_95" x1="185.607" y1="211.722" x2="186.119" y2="235.248" gradientUnits="userSpaceOnUse">
<stop stop-color="#D5D5EC"/>
<stop offset="1" stop-opacity="0"/>
<stop offset="1" stop-color="#4547DF"/>
</linearGradient>
<linearGradient id="paint1_linear_13_95" x1="181.516" y1="191.777" x2="182.027" y2="217.348" gradientUnits="userSpaceOnUse">
<stop stop-color="#85ADDB"/>
<stop offset="1" stop-opacity="0"/>
<stop offset="1" stop-color="#2E3257"/>
<stop offset="1" stop-color="#858EDB"/>
</linearGradient>
<linearGradient id="paint2_linear_13_95" x1="186.119" y1="174.389" x2="186.119" y2="197.403" gradientUnits="userSpaceOnUse">
<stop stop-color="#31387A"/>
<stop offset="1" stop-opacity="0"/>
<stop offset="1" stop-color="#5B5DDF"/>
<stop offset="1" stop-color="#5B5DDF"/>
<stop offset="1" stop-color="#2E3257"/>
</linearGradient>
<linearGradient id="paint3_linear_13_95" x1="186.63" y1="151.375" x2="186.63" y2="174.901" gradientUnits="userSpaceOnUse">
<stop stop-color="#4C7FEA"/>
<stop offset="0.0001" stop-color="#5528D8" stop-opacity="0.985"/>
<stop offset="1" stop-opacity="0"/>
<stop offset="1" stop-color="#274687"/>
</linearGradient>
<linearGradient id="paint4_linear_13_95" x1="173.383" y1="133.987" x2="173.383" y2="151.887" gradientUnits="userSpaceOnUse">
<stop stop-color="#3F54BA"/>
<stop offset="1" stop-opacity="0"/>
<stop offset="1" stop-color="#2E4AD3" stop-opacity="0.62"/>
</linearGradient>
<linearGradient id="paint5_linear_13_95" x1="173.383" y1="111.996" x2="173.383" y2="133.987" gradientUnits="userSpaceOnUse">
<stop stop-color="#5728DB"/>
<stop offset="1" stop-opacity="0"/>
<stop offset="1" stop-color="#5B5DDF"/>
</linearGradient>
</defs>
</svg>
